<?xml version="1.0" encoding="UTF-8" standalone="no"?>
<!DOCTYPE svg PUBLIC "-//W3C//DTD SVG 20010904//EN"
              "http://www.w3.org/TR/2001/REC-SVG-20010904/DTD/svg10.dtd">

<svg xmlns="http://www.w3.org/2000/svg"
     viewBox="0 0 615 500">
  <path id="outline"
        fill="#0d0d0d" stroke="none" stroke-width="1"
        d="M 03.75,443.68
           C 77.15,302.79 264.31,45.66 300.56,07.69
             303.22,04.89 308.02,05.02 309.95,07.41
             344.25,49.90 565.28,373.13 606.46,445.63
             610.34,452.46 609.42,460.16 605.04,460.61
             541.80,467.02 133.30,455.37 15.95,458.20
             07.84,458.39 01.00,448.96 03.75,443.68 Z
           M 45.00,443.50
           C 130.44,444.51 300.00,455.00 558.50,449.50
             583.50,450.00 583.50,438.50 575.50,427.50
             555.55,395.94 494.79,296.89 435.17,206.80
             383.00,122.50 356.00,95.00 317.50,48.50
             314.79,45.71 306.00,29.50 297.00,40.75
             249.14,82.95 68.82,347.76 34.50,424.50
             32.03,430.44 23.82,443.43 45.00,443.50 Z
           M 644.50,428.50M 264.00,511.00M 380.00,28.25" />
  <path id="exclamation"
        fill="#a92222" stroke="none" stroke-width="1"
        d="M 263.53,322.10
           C 268.23,250.34 254.29,161.16 241.09,129.65
             240.19,128.00 241.16,127.50 241.54,126.80
             250.93,111.98 316.89,99.21 352.76,110.04
             353.75,110.34 355.84,111.19 355.80,114.05
             356.80,156.88 326.22,278.87 335.33,311.01
             335.86,312.88 335.35,311.26 337.33,315.67
             336.17,318.57 335.46,318.82 333.96,319.56
             325.18,323.87 303.35,311.38 266.29,323.96
             265.31,324.29 263.47,323.07 263.53,322.10 Z
           M 260.35,396.77
           C 251.92,381.27 261.21,356.48 266.00,352.50
             281.50,333.88 327.50,341.25 341.25,352.25
             350.47,361.14 357.77,380.05 349.75,399.09
             346.87,406.52 344.91,407.43 338.72,410.95
             312.40,424.60 290.33,416.87 275.49,409.11
             273.14,407.88 265.70,405.13 260.35,396.77 Z
           M 533.00,269.00" />
</svg>
